<?xml version="1.0" encoding="UTF-8"?>
<svg id="Layer_2" data-name="Layer 2" xmlns="http://www.w3.org/2000/svg" viewBox="0 0 237.98 57.79">
  <defs>
    <style>
      .cls-1, .cls-2, .cls-3, .cls-4, .cls-5, .cls-6 {
        fill-rule: evenodd;
      }

      .cls-1, .cls-7 {
        fill: #231916;
      }

      .cls-2, .cls-8 {
        fill: #e60013;
      }

      .cls-9 {
        stroke-width: 1px;
      }

      .cls-9, .cls-10, .cls-11, .cls-12, .cls-13, .cls-14, .cls-15, .cls-16, .cls-17 {
        fill: none;
        stroke: #e60013;
        stroke-linecap: round;
        stroke-linejoin: round;
      }

      .cls-3 {
        fill: #da544c;
      }

      .cls-4 {
        fill: #00a768;
      }

      .cls-5 {
        fill: #fff100;
      }

      .cls-10 {
        stroke-width: .1px;
      }

      .cls-11 {
        stroke-width: .1px;
      }

      .cls-12 {
        stroke-width: .1px;
      }

      .cls-13 {
        stroke-width: .1px;
      }

      .cls-14 {
        stroke-width: .1px;
      }

      .cls-15 {
        stroke-width: .1px;
      }

      .cls-16 {
        stroke-width: .1px;
      }

      .cls-17 {
        stroke-width: .1px;
      }

      .cls-6 {
        fill: #00a0cd;
      }
    </style>
  </defs>
  <g id="Layer_1-2" data-name="Layer 1">
    <path class="cls-2" d="M9.62,42.04c6.91-3.56,28.01.73,35.52,2.45,12.77,2.93,29.24,2.38,41.58-2.7,5.62-2.31,14.77-6.68,19.26-10.61,2.03-1.77,3.22-2.88,5.54-4.39,4.33-2.81,7.1-4.5,12.24-5.56,9.26-1.9,17.41,1.05,25.04,6.57h-.03c2.5,1.5,7.04,8.81,8.38,11.56,2.33,4.76,3.51,9.19,3.52,14.56-.16-7.62-2.65-13.94-6.85-20.06-1.78-2.6-3.53-4.89-6.06-6.66-9.82-6.88-20.83-8.64-31.63-3.06-1.83.95-3.22,2.05-4.87,3h.03c-2.15,1.48-3.27,2.5-5.19,4.18-4.51,3.95-13.67,8.34-19.31,10.67-12.37,5.11-28.89,5.68-41.71,2.75-7.42-1.7-28.48-5.95-35.32-2.46-.07.04-.15.02-.2-.05-.04-.07-.02-.16.04-.21"/>
    <path class="cls-8" d="M22.37,40.94c-5.28-.36-10.05-.16-12.7,1.2,0,0-.01.02-.01.02,0,.01,0,.02,0,.03h0s.02.02.03.02c0,0,.02,0,.03,0h0s0,0,0,0h0c2.65-1.36,7.43-1.55,12.71-1.19,8.4.59,18.11,2.59,22.67,3.63,6.61,1.51,14.2,2.09,21.69,1.6,7.03-.46,13.98-1.87,19.96-4.34,2.68-1.11,6.15-2.67,9.53-4.44-3.39,1.76-6.86,3.33-9.54,4.43-5.98,2.46-12.93,3.86-19.96,4.32-7.49.49-15.08-.1-21.68-1.62-4.61-1.06-14.33-3.08-22.75-3.66M9.58,41.95c2.69-1.38,7.49-1.59,12.81-1.22,8.43.58,18.17,2.61,22.78,3.67,6.58,1.51,14.15,2.1,21.62,1.61,7.01-.45,13.94-1.85,19.9-4.3,3.2-1.32,7.56-3.31,11.54-5.5,2.99-1.65,5.77-3.41,7.7-5.09.32-.28.5-.43.66-.57,1.66-1.46,2.83-2.48,4.89-3.82,2.17-1.4,3.94-2.53,5.83-3.44,1.88-.91,3.87-1.6,6.45-2.13,4.64-.95,9.01-.69,13.18.5,4.16,1.19,8.12,3.31,11.94,6.08l.12.08c.08.05.16.11.25.18l.2.15h-.03c.96.78,2.12,2.18,3.26,3.75,1.92,2.66,3.8,5.83,4.59,7.44,1.17,2.39,2.05,4.69,2.64,7.07.59,2.38.89,4.84.9,7.53h0s-.2,0-.2,0c-.08-3.8-.74-7.27-1.9-10.56-1.16-3.29-2.83-6.39-4.93-9.44-.89-1.3-1.77-2.52-2.74-3.63-.97-1.11-2.03-2.12-3.29-3-5.03-3.53-10.38-5.71-15.85-6.23-5.17-.5-10.45.48-15.68,3.18-1.05.54-1.96,1.14-2.85,1.73-.63.42-1.26.83-1.94,1.23l-.03.02c-1.98,1.38-3.09,2.35-4.76,3.82l-.42.37c-1.94,1.7-4.74,3.48-7.75,5.15-4,2.21-8.36,4.21-11.58,5.54-6,2.48-12.97,3.89-20.02,4.36-7.51.5-15.12-.09-21.75-1.6-4.56-1.04-14.25-3.05-22.64-3.63-5.26-.37-9.99-.18-12.61,1.16-.05.03-.12.04-.17.03-.06-.01-.12-.05-.15-.11h0c-.04-.06-.05-.13-.03-.19.01-.06.05-.12.11-.16h0Z"/>
    <path class="cls-9" d="M.51,48.86s41.83,1.62,62.76,1.66l62.75-1.18v2.83s-62.75-1.66-62.75-1.66c-20.92-.04-62.1,1.17-62.77,1.18v-2.83Z"/>
    <path class="cls-2" d="M.51,48.86s41.83,1.62,62.76,1.66l62.75-1.18v2.83s-62.75-1.66-62.75-1.66c-20.92-.04-62.1,1.17-62.77,1.18v-2.83Z"/>
    <path class="cls-8" d="M125.36,49.22l-33.26-.06,33.26.25v-.19ZM48.6,48.97c-13.1-.1-25.06-.22-25.89-.22v.19s1.45,0,1.45,0c3.69,0,13.68.01,24.45.03ZM22.66,48.64c.1,0,34.29.32,51.38.39l51.37.09s.05.02.05.05v.3s-.02.05-.05.05l-51.37-.39c-15.14-.06-43.11-.08-49.89-.09h-1.5s-.05-.03-.05-.05v-.3s.02-.05.05-.05Z"/>
    <path class="cls-2" d="M22.65,48.7s34.29.32,51.38.39l51.37.09v.3s-51.37-.39-51.37-.39c-17.12-.06-50.62-.09-51.39-.09v-.3Z"/>
    <path class="cls-8" d="M124.31,47.16l-28.21-.06,28.21.25v-.19ZM59.25,46.91c-11.07-.1-21.18-.22-21.93-.22v.19c.76,0,10.86,0,21.93.03ZM37.27,46.58c.08,0,29.04.32,43.55.39l43.54.09s.05.02.05.05v.3s-.02.05-.05.05l-43.54-.39c-14.51-.06-43.47-.09-43.55-.09-.03,0-.05-.02-.05-.05v-.3s.02-.05.05-.05Z"/>
    <path class="cls-2" d="M37.27,46.63s29.04.32,43.55.39l43.54.09v.3s-43.54-.39-43.54-.39c-14.51-.07-43.55-.09-43.55-.09v-.3Z"/>
    <path class="cls-17" d="M82.78,44.73s13.56.32,20.34.39l20.34.09v.3s-20.34-.39-20.34-.39c-6.78-.06-18.23-.08-20.34-.09v-.3Z"/>
    <path class="cls-2" d="M82.77,44.72s13.56.32,20.34.39l20.34.09v.3s-20.34-.39-20.34-.39c-6.78-.06-18.23-.08-20.34-.09v-.3Z"/>
    <path class="cls-8" d="M164.93,55.5l-52.97-.06,52.97.25v-.19ZM42.81,55.25c-20.97-.1-40.11-.22-41.2-.22v.19c1.1,0,20.23,0,41.2.03ZM1.56,54.92c.16,0,54.48.32,81.72.39l81.7.09s.05.02.05.05v.3s-.02.05-.05.05l-81.7-.39c-27.22-.06-81.56-.09-81.72-.09-.03,0-.05-.02-.05-.05v-.3s.02-.05.05-.05Z"/>
    <path class="cls-2" d="M1.56,54.97s54.48.32,81.72.39l81.7.09v.3s-81.7-.39-81.7-.39c-27.22-.06-81.72-.09-81.72-.09v-.3Z"/>
    <path class="cls-8" d="M10.53,44.46c-.11-.28-.24-.62-.4-1.03.13.43.23.77.31,1.05.22.73.33,1.1.45,1.45.12.36.26.71.54,1.42.11.28.24.62.4,1.03-.13-.43-.23-.77-.31-1.05-.22-.73-.33-1.1-.45-1.46-.12-.36-.26-.71-.54-1.42M9.74,42.15c.41,1.06.68,1.76.88,2.27.28.71.41,1.06.54,1.42.12.36.23.73.45,1.46.16.54.38,1.28.7,2.32h0s0,.06-.03.07c-.02,0-.05,0-.06-.03-.41-1.06-.68-1.76-.88-2.26-.28-.71-.41-1.06-.54-1.42-.12-.36-.23-.73-.45-1.46-.16-.54-.38-1.28-.7-2.32h0s0-.06.03-.07c.03,0,.05,0,.06.03Z"/>
    <path class="cls-2" d="M9.7,42.17c1.89,4.91,1.03,2.42,2.56,7.47h0c-1.89-4.91-1.03-2.42-2.56-7.47"/>
    <path class="cls-8" d="M157,51.76l-.02-.97-.02.97c-.03,1.21-.06,2.42-.07,3.6h0s.01.06.03.07c.02.02.04.03.07.03s.05-.01.07-.03c.02-.02.03-.04.03-.07-.01-1.18-.04-2.39-.07-3.6M157,42.84c.03-1.19.06-2.37.07-3.53h0s-.01-.06-.03-.07c-.02-.02-.04-.03-.07-.03s-.05.01-.06.03h0s-.03.04-.03.07c.01,1.16.04,2.35.07,3.53l.02.97.02-.97ZM157.17,39.31c-.01,1.16-.04,2.34-.07,3.53-.04,1.5-.07,2.99-.07,4.44s.04,2.97.07,4.48c.03,1.21.06,2.42.07,3.6h0c0,.06-.02.11-.06.14-.03.04-.08.06-.14.06s-.1-.02-.14-.06c-.03-.04-.06-.09-.06-.14h0c.01-1.19.04-2.4.07-3.6.04-1.51.07-3.01.07-4.48s-.04-2.94-.07-4.44c-.03-1.19-.06-2.38-.07-3.54h0c0-.06.02-.11.06-.14h0s.08-.06.13-.06.1.02.14.06c.03.04.06.09.06.14h0Z"/>
    <path class="cls-2" d="M157.12,39.31c-.02,2.62-.14,5.39-.14,7.97s.12,5.41.14,8.08c0,.08-.06.15-.14.15s-.14-.07-.14-.15c.02-2.66.14-5.46.14-8.08s-.12-5.35-.14-7.97c0-.08.06-.15.14-.15s.14.07.14.15"/>
    <path class="cls-8" d="M152.69,48.09v-.24c-.04,2.36-.1,4.76-.16,7.04v.45s-.01,0-.01.01c0,.03,0,.05.01.07.01.02.03.04.06.04h0s.05,0,.07-.01c.02-.01.03-.03.04-.06v-.08c.1-2.33.05-4.79,0-7.21M152.7,37.48c.03-1.75.06-3.5.07-5.24h0s-.01-.06-.03-.07c-.02-.02-.04-.03-.07-.03s-.05.01-.07.03c-.02.02-.03.04-.03.07,0,1.62.04,3.26.06,4.91,0,.51.02,1.03.02,1.54l.02-1.21ZM152.88,32.24c-.01,1.74-.04,3.49-.07,5.24-.04,2.07-.07,4.14-.08,6.18,0,1.45.03,2.93.07,4.43.05,2.43.11,4.89.01,7.22v.09s0,0,0,0c-.01.05-.04.1-.08.13-.04.03-.09.04-.14.03-.05-.01-.1-.04-.12-.09-.03-.04-.04-.1-.03-.15v-.44c.1-3.65.2-7.61.21-11.23,0-2.14-.03-4.32-.07-6.51-.03-1.64-.05-3.29-.07-4.91,0-.06.02-.11.06-.14h0s.08-.06.14-.06.1.02.14.06c.04.04.06.09.06.14h0Z"/>
    <path class="cls-2" d="M152.83,32.24c-.02,3.79-.14,7.66-.15,11.42,0,3.79.23,7.88.08,11.65v.09c-.02.08-.1.13-.17.12s-.13-.1-.11-.18c.09-3.78.2-7.91.21-11.68,0-3.75-.11-7.64-.13-11.42,0-.08.06-.15.14-.15s.14.07.14.15"/>
    <path class="cls-8" d="M148.27,52.15c-.03-1.58-.06-3.18-.09-4.77v.25c-.03,2.57-.06,5.14-.04,7.72h0s.01.05.03.07c.02.02.04.03.06.03h0s.05-.01.06-.03c.02-.02.03-.04.03-.07-.02-1.06-.04-2.13-.06-3.2M148.19,33.33c.03-1.96.05-3.93.06-5.87h0s-.01-.06-.03-.07c-.02-.02-.04-.03-.07-.03s-.05.01-.07.03c-.02.02-.03.04-.03.07.01,2.12.04,4.25.08,6.38l.02,1.39c0-.63.02-1.26.03-1.9ZM148.36,27.47c-.01,1.94-.04,3.9-.06,5.87-.04,2.65-.07,5.29-.07,7.89,0,3.57.08,7.28.15,10.92.02,1.07.04,2.14.06,3.2,0,.06-.02.11-.05.15-.03.04-.08.06-.13.06h0c-.05,0-.1-.02-.13-.06-.03-.04-.06-.09-.06-.14h0c-.02-2.58,0-5.16.04-7.73.02-2.14.05-4.27.04-6.41,0-2.44-.04-4.91-.08-7.39-.03-2.13-.06-4.26-.08-6.38,0-.06.02-.11.06-.14.04-.04.08-.06.14-.06s.1.02.14.06c.03.04.06.09.06.14h0Z"/>
    <path class="cls-2" d="M148.31,27.46c-.02,4.56-.14,9.23-.13,13.77,0,4.62.12,9.49.21,14.13,0,.08-.06.15-.14.15-.08,0-.14-.07-.14-.15-.03-4.73.09-9.44.08-14.14,0-4.55-.13-9.19-.15-13.77,0-.08.06-.15.14-.15s.14.07.14.15"/>
    <path class="cls-8" d="M143.9,52.54c-.04-1.96-.09-3.94-.12-5.91-.02,2.9-.03,5.81,0,8.73h0s.01.06.03.07c.02.02.04.03.06.03h0s.05-.01.06-.03c.02-.02.03-.04.03-.07h0c-.02-.94-.04-1.88-.06-2.82M143.76,30.83c.02-2.04.05-4.09.06-6.11h0s-.01-.06-.03-.07c-.02-.02-.04-.03-.07-.03s-.05.01-.07.03c-.02.02-.03.04-.03.07.01,2.47.05,4.95.08,7.42l.02,1.14c0-.82.02-1.64.03-2.45ZM143.91,24.73c0,2.02-.03,4.06-.06,6.11-.03,3.04-.07,6.08-.06,9.07.02,4.13.11,8.43.2,12.63.02.95.04,1.89.06,2.82h0c0,.06-.02.11-.05.14-.03.04-.08.06-.13.06h0c-.05,0-.1-.02-.13-.06-.04-.04-.06-.09-.06-.14h0c-.04-2.98-.02-5.94,0-8.9.01-2.19.03-4.37.02-6.56,0-2.58-.05-5.17-.09-7.76-.04-2.48-.07-4.95-.08-7.42,0-.06.02-.11.06-.14.03-.04.08-.06.14-.06s.1.02.14.06c.03.04.06.09.06.14h0Z"/>
    <path class="cls-2" d="M143.86,24.72c-.02,5.03-.13,10.18-.12,15.18.02,5.06.16,10.37.27,15.46,0,.08-.06.15-.14.15-.08,0-.14-.06-.15-.15-.06-5.18.04-10.31.02-15.46-.02-5.04-.14-10.13-.17-15.18,0-.08.06-.15.14-.15s.14.07.14.15"/>
    <path class="cls-8" d="M139.52,48.2l-.02-1.92-.02,1.92c-.03,2.39-.06,4.78-.07,7.16h0s0,.05.03.07h0s.04.03.07.03.05-.01.07-.03c.02-.02.03-.04.03-.07-.01-2.38-.04-4.77-.07-7.16M139.52,30.08c.03-2.44.06-4.88.07-7.3h0s-.01-.06-.03-.07c-.02-.02-.04-.03-.07-.03s-.05.01-.07.03c-.02.02-.03.04-.03.07.01,2.42.04,4.86.07,7.3l.02,1.99.02-1.99ZM139.69,22.78c-.01,2.42-.04,4.86-.07,7.3-.04,3.07-.07,6.13-.07,9.2s.04,5.94.07,8.92c.03,2.39.06,4.79.07,7.17,0,.06-.02.11-.06.14-.03.04-.08.06-.14.06s-.1-.02-.14-.06h0s-.05-.09-.05-.14h0c.01-2.38.04-4.77.07-7.17.04-2.97.07-5.95.07-8.92s-.04-6.13-.07-9.2c-.03-2.44-.06-4.88-.07-7.3,0-.06.02-.11.06-.14.03-.04.08-.06.14-.06s.1.02.14.06c.03.04.06.09.06.14h0Z"/>
    <path class="cls-2" d="M139.64,22.78c-.02,5.48-.14,11.04-.14,16.5s.12,10.74.14,16.08c0,.08-.06.15-.14.15s-.14-.07-.14-.15c.02-5.34.14-10.76.14-16.08s-.12-11.02-.14-16.5c0-.08.06-.15.14-.15s.14.07.14.15"/>
    <path class="cls-12" d="M135.43,21.52c-.02,5.63-.15,11.3-.17,16.91-.02,5.64.07,11.27.02,16.93,0,.08-.07.15-.14.15-.08,0-.14-.07-.14-.15.09-5.59.24-11.36.26-16.93.02-5.59-.09-11.31-.11-16.91,0-.08.06-.15.14-.15s.14.07.14.15Z"/>
    <path class="cls-2" d="M135.42,21.52c-.02,5.63-.15,11.3-.17,16.91-.02,5.64.07,11.27.02,16.93,0,.08-.07.15-.14.15-.08,0-.14-.07-.14-.15.09-5.59.24-11.36.26-16.93.02-5.59-.09-11.31-.11-16.91,0-.08.06-.15.14-.15s.14.07.14.15"/>
    <path class="cls-8" d="M135.23,21.82s.02-.05.05-.05.05.02.05.05c0,22.71-.15,33.51-.15,33.54,0,.03-.02.05-.05.05-.03,0-.05-.02-.05-.05,0-.03.15-10.79.15-33.54"/>
    <path class="cls-13" d="M130.91,20.9c-.02,5.7-.14,11.47-.14,17.15s.12,11.56.14,17.31c0,.08-.06.15-.14.15s-.14-.07-.14-.15c.02-5.75.14-11.58.14-17.31s-.12-11.45-.14-17.15c0-.08.06-.15.14-.15s.14.07.14.15Z"/>
    <path class="cls-2" d="M130.9,20.9c-.02,5.7-.14,11.47-.14,17.15s.12,11.56.14,17.31c0,.08-.06.15-.14.15s-.14-.07-.14-.15c.02-5.75.14-11.58.14-17.31s-.12-11.45-.14-17.15c0-.08.06-.15.14-.15s.14.07.14.15"/>
    <path class="cls-8" d="M130.71,21.35s.02-.05.05-.05.05.02.05.05v34.01s-.02.05-.05.05-.05-.02-.05-.05V21.35Z"/>
    <path class="cls-10" d="M126.54,21.01c-.02,5.69-.14,11.45-.14,17.12s.12,11.51.14,17.23c0,.08-.06.15-.14.15s-.14-.07-.14-.15c.02-5.73.14-11.53.14-17.23s-.12-11.43-.14-17.12c0-.08.06-.15.14-.15s.14.07.14.15Z"/>
    <path class="cls-2" d="M126.53,21.01c-.02,5.69-.14,11.45-.14,17.12s.12,11.51.14,17.23c0,.08-.06.15-.14.15s-.14-.07-.14-.15c.02-5.73.14-11.53.14-17.23s-.12-11.43-.14-17.12c0-.08.06-.15.14-.15s.14.07.14.15"/>
    <path class="cls-8" d="M126.34,20.88s.02-.05.05-.05.05.02.05.05v34.48s-.02.05-.05.05-.05-.02-.05-.05V20.88Z"/>
    <path class="cls-15" d="M122.18,21.91c-.02,5.63-.14,11.33-.14,16.94s.12,11.02.14,16.51c0,.08-.06.15-.14.15s-.14-.07-.14-.15c.02-5.48.14-11.05.14-16.51s-.12-11.31-.14-16.94c0-.08.06-.15.14-.15s.14.07.14.15Z"/>
    <path class="cls-2" d="M122.16,21.91c-.02,5.63-.14,11.33-.14,16.94s.12,11.02.14,16.51c0,.08-.06.15-.14.15s-.14-.07-.14-.15c.02-5.48.14-11.05.14-16.51s-.12-11.31-.14-16.94c0-.08.06-.15.14-.15s.14.07.14.15"/>
    <path class="cls-8" d="M121.97,22.46s.02-.05.05-.05.05.02.05.05v32.9s-.02.05-.05.05-.05-.02-.05-.05V22.46Z"/>
    <path class="cls-14" d="M117.81,23.42c-.02,5.23-.14,10.54-.14,15.74s.12,10.81.14,16.19c0,.08-.06.15-.14.15s-.14-.07-.14-.15c.02-5.38.14-10.83.14-16.19s-.12-10.51-.14-15.74c0-.08.06-.15.14-.15s.14.07.14.15Z"/>
    <path class="cls-2" d="M117.8,23.43c-.02,5.23-.14,10.54-.14,15.74s.12,10.81.14,16.19c0,.08-.06.15-.14.15s-.14-.07-.14-.15c.02-5.38.14-10.83.14-16.19s-.12-10.51-.14-15.74c0-.08.06-.15.14-.15s.14.07.14.15"/>
    <path class="cls-8" d="M117.6,23.73s.02-.05.05-.05.05.02.05.05v31.63s-.02.05-.05.05-.05-.02-.05-.05v-31.63Z"/>
    <path class="cls-17" d="M113.44,25.8c-.02,4.95-.14,9.97-.14,14.89s.12,9.79.14,14.67c0,.08-.06.15-.14.15s-.14-.07-.14-.15c.02-4.87.14-9.82.14-14.67s-.12-9.95-.14-14.89c0-.08.06-.15.14-.15s.14.07.14.15Z"/>
    <path class="cls-2" d="M113.43,25.8c-.02,4.95-.14,9.97-.14,14.9s.12,9.8.14,14.67c0,.08-.06.15-.14.15s-.14-.07-.14-.15c.02-4.87.14-9.82.14-14.67s-.12-9.95-.14-14.9c0-.08.06-.15.14-.15s.14.07.14.15"/>
    <path class="cls-8" d="M113.23,25.8s.02-.05.05-.05.05.02.05.05v29.56s-.02.05-.05.05-.05-.02-.05-.05v-29.56Z"/>
    <path class="cls-8" d="M108.94,49.52l-.02-1.56-.02,1.56c-.03,1.95-.06,3.91-.07,5.84h0s.01.05.03.07c.02.02.04.03.07.03s.05-.01.07-.03c.02-.02.03-.04.03-.07-.01-1.94-.04-3.89-.07-5.84M108.94,34.83c.03-1.97.06-3.93.07-5.89h0s-.01-.05-.03-.07c-.02-.02-.04-.03-.07-.03s-.05.01-.07.03c-.02.02-.03.04-.03.07.01,1.95.04,3.92.07,5.89l.02,1.6.02-1.6ZM109.11,28.95c-.01,1.95-.04,3.92-.07,5.89-.04,2.48-.07,4.96-.07,7.42s.04,4.84.07,7.26c.03,1.95.06,3.91.07,5.85,0,.06-.02.11-.06.14-.04.04-.08.06-.14.06s-.1-.02-.14-.06c-.03-.04-.06-.09-.06-.14h0c.01-1.94.04-3.89.07-5.85.04-2.43.07-4.85.07-7.26s-.04-4.94-.07-7.42c-.03-1.97-.06-3.94-.07-5.89,0-.06.02-.11.06-.14.03-.04.08-.06.14-.06s.1.02.14.06c.03.04.06.09.06.14h0Z"/>
    <path class="cls-2" d="M109.06,28.94c-.02,4.42-.14,8.92-.14,13.31s.12,8.76.14,13.11c0,.08-.06.15-.14.15s-.14-.07-.14-.15c.02-4.35.14-8.79.14-13.11s-.12-8.9-.14-13.31c0-.08.06-.15.14-.15s.14.07.14.15"/>
    <path class="cls-16" d="M108.92,28.72v26.65"/>
    <path class="cls-11" d="M104.7,32.64c-.02,3.72-.14,7.55-.14,11.25s.12,7.63.14,11.4c0,.08-.06.15-.14.15s-.14-.07-.14-.15c.02-3.77.14-7.65.14-11.4s-.12-7.53-.14-11.25c0-.08.06-.15.14-.15s.14.07.14.15Z"/>
    <path class="cls-2" d="M104.69,32.63c-.02,3.72-.14,7.55-.14,11.25s.12,7.63.14,11.4c0,.08-.06.15-.14.15s-.14-.07-.14-.15c.02-3.77.14-7.65.14-11.4s-.12-7.53-.14-11.25c0-.08.06-.15.14-.15s.14.07.14.15"/>
    <path class="cls-8" d="M104.49,32.63s.02-.05.05-.05.05.02.05.05v22.73s-.02.05-.05.05-.05-.02-.05-.05v-22.73Z"/>
    <path class="cls-8" d="M163.45,57.49l-51.98-.06,51.98.25v-.19ZM43.46,57.24c-20.58-.1-39.34-.22-40.42-.22v.19c1.08,0,19.84,0,40.42.03ZM2.99,56.91c.15,0,53.51.32,80.26.39l80.24.09s.05.02.05.05v.3s-.02.05-.05.05l-80.24-.39c-26.75-.06-80.11-.09-80.26-.09-.03,0-.05-.02-.05-.05v-.3s.02-.05.05-.05Z"/>
    <path class="cls-2" d="M2.99,56.96s53.51.32,80.26.39l80.24.09v.3s-80.24-.39-80.24-.39c-26.75-.06-80.26-.09-80.26-.09v-.3Z"/>
    <path class="cls-17" d="M6.09,52.67c4.92.03,41.84.32,62.76.39l62.75.09v.3s-62.75-.39-62.75-.39c-20.92-.06-58.38-.08-62.76-.09v-.3Z"/>
    <path class="cls-2" d="M6.08,52.67c4.92.03,41.84.32,62.76.39l62.75.09v.3s-62.75-.39-62.75-.39c-20.92-.06-58.38-.08-62.76-.09v-.3Z"/>
    <path class="cls-8" d="M6.08,52.87s-.05-.02-.05-.05.02-.05.05-.05l125.51.48s.05.02.05.05-.02.05-.05.05l-125.51-.48Z"/>
    <path class="cls-2" d="M24.48,52.19c.42,0,.75.36.75.79s-.34.79-.75.79-.75-.36-.75-.79.34-.79.75-.79"/>
    <path class="cls-2" d="M54.16,52.19c.42,0,.75.36.75.79s-.34.79-.75.79-.75-.36-.75-.79.34-.79.75-.79"/>
    <path class="cls-2" d="M75.11,52.19c.42,0,.75.36.75.79s-.34.79-.75.79-.75-.36-.75-.79.34-.79.75-.79"/>
    <path class="cls-2" d="M96.05,52.19c.42,0,.75.36.75.79s-.34.79-.75.79-.75-.36-.75-.79.34-.79.75-.79"/>
    <path class="cls-8" d="M13.44,44.46c-.11-.28-.24-.62-.4-1.03.13.43.23.77.31,1.05.22.73.33,1.1.45,1.45.12.36.26.71.54,1.42.11.28.24.62.4,1.03-.13-.43-.23-.77-.31-1.05-.22-.73-.33-1.1-.45-1.46-.12-.36-.26-.71-.54-1.42M12.66,42.15c.41,1.06.68,1.76.88,2.27.28.71.41,1.06.54,1.42.12.36.23.73.45,1.46.16.54.38,1.28.7,2.32h0s0,.06-.03.07c-.03,0-.05,0-.06-.03-.41-1.06-.68-1.76-.88-2.26-.28-.71-.41-1.06-.54-1.42-.12-.36-.23-.73-.45-1.46-.16-.54-.38-1.28-.7-2.32h0s0-.06.03-.07c.02,0,.05,0,.06.03Z"/>
    <path class="cls-2" d="M12.61,42.17c1.89,4.91,1.03,2.42,2.56,7.47-1.89-4.91-1.03-2.42-2.56-7.47"/>
    <path class="cls-8" d="M16.35,44.46c-.11-.28-.24-.62-.4-1.03.13.43.23.77.31,1.05.22.73.33,1.1.45,1.45.12.36.26.71.54,1.42.11.28.24.62.4,1.03-.13-.43-.23-.77-.31-1.05-.22-.73-.33-1.1-.45-1.46-.12-.36-.26-.71-.54-1.42M15.57,42.15c.41,1.06.68,1.76.88,2.27.28.71.41,1.06.54,1.42.12.36.23.73.45,1.46.16.54.38,1.28.7,2.32h0s0,.06-.03.07c-.02,0-.05,0-.06-.03-.41-1.06-.68-1.76-.88-2.26-.28-.71-.41-1.06-.54-1.42-.12-.36-.23-.73-.45-1.46-.16-.54-.38-1.28-.7-2.32h0s0-.06.03-.07c.02,0,.05,0,.06.03Z"/>
    <path class="cls-2" d="M15.52,42.17c1.89,4.91,1.03,2.42,2.56,7.47-1.89-4.91-1.03-2.42-2.56-7.47"/>
    <path class="cls-8" d="M19.27,44.46c-.11-.28-.24-.62-.4-1.03.13.43.23.77.31,1.05.22.73.33,1.1.45,1.45.12.36.26.71.54,1.42.11.28.24.62.4,1.03-.13-.43-.23-.77-.31-1.05-.22-.73-.33-1.1-.45-1.46-.12-.36-.26-.71-.54-1.42M18.48,42.15c.41,1.06.68,1.76.88,2.27.28.71.41,1.06.54,1.42.12.36.23.73.45,1.46.16.54.38,1.28.7,2.32h0s0,.06-.03.07c-.02,0-.05,0-.06-.03-.41-1.06-.68-1.76-.88-2.26-.28-.71-.41-1.06-.54-1.42-.12-.36-.23-.73-.45-1.46-.16-.54-.38-1.28-.7-2.32h0s0-.06.03-.07c.03,0,.05,0,.06.03Z"/>
    <path class="cls-2" d="M18.44,42.17c1.89,4.91,1.03,2.42,2.56,7.47h0c-1.89-4.91-1.03-2.42-2.56-7.47"/>
    <path class="cls-7" d="M55.35,10.15v3.1h-5v-3.1h5ZM112.33,9.02h1.38c1.22,0,1.82-.46,1.82-1.37,0-.86-.56-1.29-1.68-1.29h-1.52v2.65ZM112.39,11.92v4.9h-4.21V3.31h5.77c1.44,0,2.53.17,3.28.5.75.33,1.34.83,1.78,1.52.44.68.66,1.44.66,2.29,0,1.29-.45,2.33-1.34,3.12-.89.79-2.09,1.19-3.59,1.19h-2.34ZM106.93,13.5v3.32h-9.48V3.31h4.15v10.19h5.33ZM95.28,16.82h-3.38l-3.71-5.96c-.48-.77-.95-1.7-1.41-2.81.22.87.33,1.61.33,2.22v6.55h-3.36V3.31h3.91l3.15,4.95c.63.98,1.1,1.85,1.42,2.6-.21-1.15-.32-2.34-.32-3.54V3.31h3.38v13.51ZM78.6,11.67l3.79.23c-.18,1.65-.79,2.92-1.83,3.8s-2.33,1.32-3.85,1.32c-1.83,0-3.31-.61-4.44-1.82-1.13-1.21-1.69-2.89-1.69-5.02s.53-3.83,1.6-5.12c1.07-1.3,2.56-1.95,4.47-1.95,1.79,0,3.16.49,4.12,1.48.96.99,1.5,2.3,1.62,3.92l-3.87.21c0-.9-.17-1.55-.52-1.95-.34-.4-.75-.6-1.22-.6-1.3,0-1.95,1.31-1.95,3.94,0,1.47.17,2.47.51,3,.34.53.82.79,1.43.79,1.09,0,1.7-.74,1.83-2.23ZM69.16,3.31v8.51c0,1.31-.11,2.3-.35,2.98-.23.68-.69,1.22-1.37,1.62-.68.4-1.6.6-2.76.6-1.02,0-1.94-.11-2.77-.32v-3.22c.58.16,1.12.24,1.62.24.59,0,1.01-.14,1.26-.41.25-.27.37-.77.37-1.49V3.31h3.99ZM60.78,3.31v13.51h-4.15V3.31h4.15ZM49.99,13.5v3.32h-9.48V3.31h4.15v10.19h5.33ZM35.38,11.67l3.79.23c-.18,1.65-.79,2.92-1.83,3.8s-2.33,1.32-3.85,1.32c-1.83,0-3.31-.61-4.44-1.82-1.13-1.21-1.69-2.89-1.69-5.02s.53-3.83,1.6-5.12c1.07-1.3,2.56-1.95,4.47-1.95,1.79,0,3.16.49,4.12,1.48.96.99,1.5,2.3,1.62,3.92l-3.87.21c0-.9-.17-1.55-.52-1.95-.34-.4-.75-.6-1.22-.6-1.3,0-1.95,1.31-1.95,3.94,0,1.47.17,2.47.51,3,.34.53.82.79,1.43.79,1.09,0,1.7-.74,1.83-2.23ZM19.43,11.21h2.16l-1.08-3.91-1.08,3.91ZM23.1,16.82l-.75-2.65h-3.68l-.8,2.65h-3.36l4.18-13.51h4.38l4.25,13.51h-4.23ZM6.69,11.21h2.16l-1.08-3.91-1.08,3.91ZM10.36,16.82l-.75-2.65h-3.68l-.8,2.65H1.78L5.96,3.31h4.38l4.25,13.51h-4.23Z"/>
    <path class="cls-2" d="M160.89,9.37c-1.97.31-4.76,2.46-4.89,3.36-.07.49.08.99.23,1.29.3.59.96,1.16,1.94,1.21,1.67.08,3.46-1.23,4.21-2.29,1.35-1.91.93-3.95-1.49-3.57M147.42,11.91c.05-.23.87-.97,1.22-1.36,1.19-1.31,3.08-3.31,2.69-5.03-.47-2.05-2.67-2.39-4.68-1.77-.94.29-1.05.08-1.7.81.02.89.35,1.59.9,1.96.74.49,1.47-.4,2.49-.09.09,1.01-2.86,4.06-3.7,4.82-.95.86-1.64.37-1.94,1.32-.07.21-.08.54-.15.81-.07.26-.16.43-.22.68-.24.95-.05,2.12.95,1.87.28-.07,1.01-.52,2.27-.85,1.04-.27,4.19-.55,4.89-1.17-.13-.08-.32-.02-.52.06-.33.13-.34.29-.48-.05,2.07-.71,1.39-.93,2.58-3.21.46-.89,1.84-3.11,2.41-3.48-.06.24-.66,1.67-.88,2.42-.77,2.58-.79,5.19.85,6.82.85.84,2.67,1.61,4.28,1.14.57-.17,1.99-.68,2.53-1.03.29-.19,1.13-.73,1.25-.95-.36-.04-.43.42-1.19.68-.05.02-.25.09-.31.11-.13.06-.17.11-.32.19-.29.15-.47.23-.82.21.14-.19-.02-.02.14-.15.09-.07.11-.07.19-.11,1.28-.64,1.09-.59,2.19-1.49,1.37-1.12,1.54-2.28,1.87-2.67.05.36-.34,1.13-.47,1.41-.09.19-.25.49-.34.63-.09.13-.27.29-.31.44v.13c.21-.08.17-.09.52-.64.15-.23.34-.54.46-.8.81-1.8.75-4.15-.38-5.24-1.21-1.17-3.34-1.06-5.11-.43-.53.19-1.2.61-1.65.7.32-1.45,1.75-3.54,2.78-4.61.67-.7.63-.49,1.45-.8.25-.6.3-.88.1-1.42-.39-1.04-.88-1.13-1.08-1.42-.23-.33-.12-.44-1.07-.29-.21.03-.39.2-.6.33-.29.19-.4.13-.6.25-.27.16-.16.34-.29.69,0,.02-2.07,3.43-2.81,5.13l-2.59,3.12c-1.46,1.83-1.86,2.67-4.79,2.32Z"/>
    <path class="cls-2" d="M138.17,7.76l-.87,1.72c-1.52,3.92.41,3.46,1.92,1.78.39-.43,1.97-2.63,1.46-3.39-.61-.92-1.87.79-2.27.61-.43-.2.27-.32-.24-.72M131.93,14.77c-.05-.3-.09.06-.19-.25.35-.09.63-.2.74-.5-.22-.1-.24,0-.43-.18.08-.27.33-.44.67-1.43.2-.57.33-1.07.64-1.56.42-.69,1.3-2.08,1.82-2.41.04.27-.4,1.38-.53,1.84-.53,1.84-.46,3.87.9,4.87,1.96,1.43,4.83-1.18,5.44-2.5-.42.22-.1.37-.5.39.07-.19.6-.93.77-1.19.9-1.36,1.67-2.97,1.35-4.59-.34-1.75-1.59-2.36-3.18-1.96-.25.06-.46.16-.69.21-.19.04-1.28-.2-.91.97l.18.84c-.17-.31-.36-.28-.92-.4-.49-.1-.68-.06-1.05.22-.54.42-1.03.98-1.45,1.44-.47.5-.92.98-1.4,1.51-1.75,1.93-1.51,1.79-3.71,1.84-1.04.03-.58-.2.32-1.18l2.78-3.15c.34-.4,1.01-1.17,1.18-1.8.63-2.35-1.04-4.08-3.92-3.76-1.63.18-2.71.74-4.03,1.4-.58.29-.69,0-1.09.21-.03.01-.8.61-.8.61-.43.46-.09,1.82.08,2.18.23.48.63,1.16,1.3,1.29,1.06.2,1.03-.45,1.3-.72.76-.77,2.27-1.37,3.31-1.48.7-.08.74.07.36.68-1.24,2.01-4.17,5.06-5.77,5.99-1.2.7-1.26-.12-2.25,1.14-.16.2-.27.19-.32.45-.04.18,0,.26-.07.55-.22.82-.99,1.76-.26,2.75.19.26.45.44.88.4.62-.07.69-.49,1.84-.99l.93-.44c2.76-1.17,6.08-1.05,6.67-1.28Z"/>
    <path class="cls-7" d="M76.49,27.76c-.61.08-.91.35-.91.82,0,.21.07.39.22.52.15.13.35.2.59.2.34,0,.63-.12.85-.36.22-.24.33-.54.33-.9v-.41l-1.09.14ZM74.6,24.96c.26-.15.61-.26,1.04-.35.43-.09.81-.13,1.12-.13,1.61,0,2.41.81,2.41,2.42v3.47h-1.6v-.84h-.02c-.39.65-.97.98-1.72.98-.54,0-.98-.15-1.31-.46-.33-.31-.49-.73-.49-1.27,0-1.1.66-1.74,1.97-1.92l1.58-.21c0-.67-.35-1-1.04-1s-1.33.21-1.94.62v-1.29ZM73.34,30.37h-1.67v-3.21c0-.93-.33-1.39-1-1.39-.32,0-.58.12-.79.37-.21.25-.32.56-.32.95v3.28h-1.68v-5.75h1.68v.91h.02c.42-.7,1.04-1.05,1.85-1.05,1.27,0,1.91.79,1.91,2.37v3.52ZM65.02,30.37v-5.75h1.67v5.75h-1.67ZM64.89,22.76c0-.26.09-.46.27-.63.18-.16.41-.24.7-.24s.53.08.71.25c.18.17.27.37.27.62s-.09.46-.27.63c-.18.17-.42.25-.7.25s-.51-.09-.7-.26c-.18-.17-.28-.38-.28-.63ZM63.92,30.37h-1.67v-3.28c0-.88-.32-1.33-.97-1.33-.32,0-.59.12-.8.37-.21.25-.31.57-.31.96v3.28h-1.68v-8.51h1.68v3.62h.02c.44-.67,1.03-1,1.78-1,1.3,0,1.95.79,1.95,2.36v3.53ZM57.55,30.07c-.59.29-1.35.43-2.29.43-1.21,0-2.17-.36-2.89-1.09-.71-.73-1.07-1.69-1.07-2.9,0-1.27.4-2.31,1.19-3.12.79-.81,1.82-1.21,3.08-1.21.79,0,1.45.1,1.98.31v1.66c-.54-.32-1.16-.48-1.85-.48-.79,0-1.42.25-1.89.75-.47.5-.71,1.16-.71,1.97s.22,1.43.67,1.91c.45.48,1.05.72,1.81.72.72,0,1.37-.17,1.96-.52v1.58ZM44.31,30.37h-1.67v-3.21c0-.93-.33-1.39-1-1.39-.32,0-.58.12-.8.37-.21.25-.32.56-.32.95v3.28h-1.68v-5.75h1.68v.91h.02c.42-.7,1.04-1.05,1.85-1.05,1.27,0,1.91.79,1.91,2.37v3.52ZM35.99,30.37v-5.75h1.67v5.75h-1.67ZM35.86,22.76c0-.26.09-.46.27-.63.18-.16.41-.24.7-.24s.53.08.71.25c.18.17.27.37.27.62s-.09.46-.27.63c-.18.17-.42.25-.7.25s-.51-.09-.7-.26c-.18-.17-.27-.38-.27-.63ZM33.15,27.13c0-.38-.12-.7-.34-.97-.23-.26-.52-.4-.87-.4-.4,0-.72.16-.96.48-.24.32-.36.76-.36,1.34,0,.52.12.92.35,1.2.23.29.53.43.89.43.39,0,.7-.15.94-.44.24-.29.36-.67.36-1.14v-.5ZM34.8,33.01h-1.67v-3.46h-.02c-.4.63-1,.95-1.79.95-.72,0-1.31-.25-1.74-.76-.44-.5-.66-1.21-.66-2.12,0-.96.24-1.73.73-2.3.48-.57,1.11-.86,1.89-.86.71,0,1.23.27,1.58.83h.02v-.68h1.67v8.39ZM26.4,27.12c0-.38-.12-.7-.35-.97-.23-.26-.52-.39-.87-.39-.41,0-.73.16-.97.48-.24.32-.36.77-.36,1.35,0,.5.12.9.34,1.19.23.29.53.43.91.43s.69-.15.93-.44c.24-.3.36-.68.36-1.15v-.5ZM28.06,29.73c0,1.07-.3,1.89-.91,2.47-.61.58-1.48.87-2.63.87-.78,0-1.39-.11-1.85-.33v-1.44c.6.35,1.2.52,1.8.52s1.07-.16,1.41-.48c.34-.32.51-.76.51-1.33v-.48h-.03c-.4.66-1.01.98-1.81.98-.72,0-1.3-.26-1.74-.77-.43-.52-.65-1.21-.65-2.07,0-.97.24-1.74.72-2.32.48-.58,1.11-.86,1.89-.86.71,0,1.24.27,1.59.83h.03v-.68h1.67v5.12ZM21.38,30.37h-1.67v-3.21c0-.93-.33-1.39-1-1.39-.32,0-.58.12-.8.37-.21.25-.32.56-.32.95v3.28h-1.68v-5.75h1.68v.91h.02c.42-.7,1.04-1.05,1.85-1.05,1.27,0,1.91.79,1.91,2.37v3.52ZM13.58,26.91c0-.86-.35-1.29-1.04-1.29-.29,0-.54.12-.76.35-.22.24-.36.55-.42.94h2.22ZM15.14,27.96h-3.78c.06.89.6,1.34,1.61,1.34.63,0,1.19-.15,1.68-.47v1.23c-.52.29-1.21.44-2.06.44-.91,0-1.63-.26-2.13-.77-.51-.52-.76-1.24-.76-2.16s.27-1.66.81-2.24c.54-.57,1.22-.86,2.04-.86s1.45.25,1.91.74c.46.49.69,1.17.69,2.04v.71ZM8.64,30.37h-1.72v-3.32h-3.43v3.32h-1.72v-8.05h1.72v3.25h3.43v-3.25h1.72v8.05Z"/>
    <rect class="cls-8" x="47.35" y="23.02" width=".78" height="8.88"/>
    <path class="cls-3" d="M230.04,7.31c.2.01,1.53.02,1.53.02-.05.02-.92.55-1.31,1.01,2.07,0,5.58-1.21,5.29-3.23-.59-.48-2.73-1.62-3.83-1.07-.27.13-1.63,2.86-1.69,3.28M226.1,2.76l-.1,1.99c1.19.08,1.46-.23,2.23-.26-.04.48-2.14,4.52-2.52,5.31-.55,1.15-2.42,4.46-2.11,5.83.44.29,1.33.73,1.92.76.38-.12.8-1.05.94-1.36l2.28-4.57c.67.16.42.44,1.31.65.7.17,1.32.09,1.93-.06,1.28-.32,1.86-.51,3.03-1.21,6.88-4.1.99-12.11-8.9-7.07Z"/>
    <path class="cls-1" d="M206.84,1.33c-1.5,1.36-1.74,2.31-2.92,4.78-1,2.08-3.58,7.39-3.31,9.52.49.35,1.44.84,2.09.86l3.85-9.5c.22.4.4,4.82.5,5.69.21,1.99.42,3.62,2.91,3.23l3.06-7.31c.56-1.36.99-2.37,1.51-3.66l1.4-3.49c.04-.72-1.74-.74-1.77-.73-.62.44-1,1.22-1.38,1.91-.38.7-.74,1.43-1.1,2.27-.27.62-1.57,4.21-2.06,4.64l-.7-8.18c-.81-.17-1.33.04-2.07,0"/>
    <path class="cls-6" d="M186.46,8.67l1.59-.2c.16-.54.9-3.08.74-3.46-.54.53-2.25,2.91-2.33,3.66M181.02,9.96c-.08.8.72.72.33,1.57-1,2.15-2.76,3.04-.54,5.06,1.87-.65,2.73-4.41,4.26-4.85.69-.2,1.69-.54,2.41-.55,0,.09-.83,3.93-.02,4.65.59.21,1.88.08,2.28-.26.28-.37.6-2.98.71-3.62.24-1.31.42-2.45.59-3.76.18-1.47,1.31-6.35,1.11-7.54-1.99-.18-2.24-.13-3.59,1.42-.86.99-1.52,1.84-2.34,2.85-.7.86-1.47,1.79-2.21,2.84-1.35,1.91-1.04,2.01-2.99,2.2Z"/>
    <path class="cls-6" d="M205.05,19.25c-.32-.59-.09-1.02-.87-1.23-.56-.15-1.48-.09-2.08-.07-4.56.15-14.63,1.68-19.07,2.41-1.03.17-6.23,1.44-6.54,1.98,1.05.55,21.15-2.88,24.91-2.79-.23.44-.31.18-.52.62-1,2.08,3.74.72,4.03.69,1.42-.18,2.73-.5,4.07-.69,15.2-2.07,16.7.72,27.09.26-1.62-1.57-13.16-2.47-14.91-2.56-7.99-.44-13.7,1.38-16.12,1.38"/>
    <path class="cls-4" d="M217.1,16.37c1.55,0,4.89.01,5.89-.75.04-.62-.08-1.19-.23-1.7-.23-.77-.51-.63-2.15-.58l-4.3.27c.03-1.14,5.58-11.48,5.63-12.9-2.94-.02-2.51.33-4.18,3.07-1.42,2.34-3.5,7.57-4.52,10.08-1.15,2.82.54,2.5,3.87,2.5"/>
    <path class="cls-5" d="M195.28,1.69l2.76-.54,1.66-.42s4.06-.84,5.09-.63l1.26,2.17-.23.21s-5.96-.05-6.68,1.14l-1.96,2.9,3.78-.28h.26s.12,1.38.56,1.87c0,0,.4.35-.28.35l-5.77.93-2.97,6.49s-.33.42-1.17-.28l-.75-.7s-.42-.47.02-1.28l2.22-4.98-.33-1.35,1.45-.33,1.75-3.43s.05-.37-.44-.49c0,0-.51-.68-.23-1.35"/>
    <path class="cls-2" d="M212.82,36.69h-19.59c-.34,0-.63.28-.63.61v8.74c0,.34.28.61.63.61h19.59c.34,0,.63-.28.63-.61v-8.74c0-.34-.28-.61-.63-.61M181,25.56h32.44v-2.53h11.6v23.69h8.61v11.06h-52.66V25.56Z"/>
    <rect class="cls-8" x="170.54" y=".05" width=".78" height="57.74"/>
  </g>
</svg>